<?xml version="1.0" encoding="utf-8"?>

<!-- Uploaded to: SVG Repo, www.svgrepo.com, Generator: SVG Repo Mixer Tools -->
<svg version="1.1" id="Icons" xmlns="http://www.w3.org/2000/svg" xmlns:xlink="http://www.w3.org/1999/xlink" 
	 viewBox="0 0 32 32" xml:space="preserve">
<style type="text/css">
	.st0{fill:none;stroke:#000000;stroke-width:2;stroke-linejoin:round;stroke-miterlimit:10;}
	.st1{fill:none;stroke:#000000;stroke-width:2;stroke-linecap:round;stroke-linejoin:round;stroke-miterlimit:10;}
</style>
<ellipse transform="matrix(0.7071 -0.7071 0.7071 0.7071 -3.7059 20.9425)" class="st1" cx="23.4" cy="14.9" rx="2.9" ry="4.7"/>
<path class="st1" d="M4,3h4.2C11.4,3,14,5.6,14,8.8V22c0,1.1,0.9,2,2,2h0c1.1,0,2-0.9,2-2v-3.8c0-1.4,0.5-2.9,1.3-4l0.2-0.3"/>
<path class="st1" d="M5,3l1.4,2.1C6.8,5.7,7.4,6,8,6h0c1.1,0,2,0.9,2,2v13.8c0,4,3.2,7.2,7.2,7.2h0c3.7,0,6.8-3,6.8-6.8v0
	c0-1.2,0.3-2.4,0.9-3.4"/>
<line class="st1" x1="15" y1="11" x2="13" y2="11"/>
<line class="st1" x1="15" y1="14" x2="13" y2="14"/>
<line class="st1" x1="15" y1="17" x2="13" y2="17"/>
<line class="st1" x1="15" y1="20" x2="13" y2="20"/>
</svg>